# xmcd
# 
# Track frame offsets:
#     150
#     26948
#     53720
#     70805
#     87888
#     116400
#     332550
# 
# Disc length: 4440
# 
# Revision: 4
# Processed by: cddbd v1.5.2PL0 Copyright (c) Steve Scherf et al.
# Submitted via: fre:ac v1.0.27
# 
DISCID=58115607
DTITLE=L'Arc～en～Ciel - 瞳の住人
DYEAR=2004
DGENRE=Rock
TTITLE0=瞳の住人
TTITLE1=瞳の住人 (hydeless version)
TTITLE2=READY STEADY GO (ken READY)
TTITLE3=READY STEADY GO (tetsu READY)
TTITLE4=READY STEADY GO (yukihiro READY)
TTITLE5=@1
TTITLE6=@2
EXTD=YEAR: 2004
EXTT0=
EXTT1=
EXTT2=
EXTT3=
EXTT4=
EXTT5=
EXTT6=
PLAYORDER=
